<?xml version="1.0" encoding="UTF-8"?>
<svg version="1.1" xmlns="http://www.w3.org/2000/svg" width="500" height="500">
<path d="M0 0 C17.98021505 16.69997822 26.44807175 39.62343154 27.875 63.75 C29.80331922 118.37828047 -5.87700556 168.216536 -41.25 206.5 C-48.01220179 213.73325451 -55.00887504 220.73926923 -62 227.75 C-62.80996429 228.56398254 -62.80996429 228.56398254 -63.6362915 229.39440918 C-69.61784034 235.39845786 -75.64660035 241.27674481 -82.125 246.75 C-83.20787439 247.68782942 -84.28993513 248.62659935 -85.37109375 249.56640625 C-133.14138921 290.75 -133.14138921 290.75 -138.125 290.75 C-137.13732697 270.00886645 -127.51313076 247.32497964 -112.375 232.9375 C-102.87819353 225.32915982 -93.0756724 222.73411143 -81.31030273 220.57373047 C-75.46984306 219.46252965 -71.02942773 218.16803909 -66.125 214.75 C-63.65536827 211.04555241 -63.86380206 208.21585951 -63.9375 203.9375 C-63.93814453 203.23818359 -63.93878906 202.53886719 -63.93945312 201.81835938 C-63.97420982 197.6900369 -64.38371108 193.80428015 -65.125 189.75 C-65.4257023 186.70354067 -65.5728378 183.78599131 -65.125 180.75 C-63.125 178.5 -63.125 178.5 -61.125 176.75 C-60.375 174.25 -60.375 174.25 -61.125 171.75 C-63.44821702 169.50808599 -63.44821702 169.50808599 -66.125 167.75 C-66.785 167.09 -67.445 166.43 -68.125 165.75 C-67.3 165.37875 -66.475 165.0075 -65.625 164.625 C-62.84471736 162.97389925 -62.84471736 162.97389925 -62.5625 159.9375 C-63.39935284 155.1953339 -65.76463781 152.11036219 -69.125 148.75 C-69.01587111 145.58526211 -67.9272104 144.53659544 -65.75 142.1875 C-64.31097254 140.85126021 -62.8510981 139.53276746 -61.3125 138.3125 C-59.91573454 136.67980322 -59.91573454 136.67980322 -59.375 133.9375 C-60.2568122 130.18979816 -60.84888926 129.87894082 -63.9375 127.8125 C-65.65601577 126.77383662 -67.38606487 125.75410292 -69.125 124.75 C-86.99716564 113.93465513 -94.4616143 101.96365631 -102.70361328 83.28955078 C-108.87273434 69.42680116 -116.2701174 57.29774587 -126.125 45.75 C-126.71796875 45.05390625 -127.3109375 44.3578125 -127.921875 43.640625 C-139.49558451 31.15018602 -155.02599434 24.95689345 -171.125 20.75 C-171.125 17.27946224 -170.81018782 17.05217738 -168.484375 14.7109375 C-167.91460937 14.1348877 -167.34484375 13.55883789 -166.7578125 12.96533203 C-166.13648438 12.35802246 -165.51515625 11.75071289 -164.875 11.125 C-164.23820313 10.49835449 -163.60140625 9.87170898 -162.9453125 9.22607422 C-118.76616145 -33.53397562 -47.62522074 -40.59134198 0 0 Z M-55.125 4.75 C-55.125 12.67 -55.125 20.59 -55.125 28.75 C-62.715 28.75 -70.305 28.75 -78.125 28.75 C-78.125 37.33 -78.125 45.91 -78.125 54.75 C-70.535 54.75 -62.945 54.75 -55.125 54.75 C-55.125 62.67 -55.125 70.59 -55.125 78.75 C-46.545 78.75 -37.965 78.75 -29.125 78.75 C-29.125 70.83 -29.125 62.91 -29.125 54.75 C-21.205 54.75 -13.285 54.75 -5.125 54.75 C-5.125 46.17 -5.125 37.59 -5.125 28.75 C-13.045 28.75 -20.965 28.75 -29.125 28.75 C-29.125 20.83 -29.125 12.91 -29.125 4.75 C-37.705 4.75 -46.285 4.75 -55.125 4.75 Z " fill="#FC3231" transform="translate(411.125,118.25)"/>
<path d="M0 0 C0.81992432 0.42055664 1.63984863 0.84111328 2.48461914 1.27441406 C3.24250732 1.67499023 4.00039551 2.07556641 4.78125 2.48828125 C5.78768555 3.01675659 5.78768555 3.01675659 6.81445312 3.5559082 C8.5 4.6875 8.5 4.6875 10.5 7.6875 C7.73733252 10.50812242 4.96353947 13.31754214 2.1875 16.125 C1.40181641 16.92744141 0.61613281 17.72988281 -0.19335938 18.55664062 C-1.3293457 19.70229492 -1.3293457 19.70229492 -2.48828125 20.87109375 C-3.18477783 21.57806396 -3.88127441 22.28503418 -4.59887695 23.01342773 C-7.83505135 25.86310641 -11.18818192 25.90023895 -15.35083008 26.2824707 C-44.23576835 28.97147708 -73.24952656 40.24490067 -92.5 62.6875 C-101.5081045 74.30282825 -107.64912556 86.4688867 -111.5 100.6875 C-111.6757959 101.27893799 -111.8515918 101.87037598 -112.03271484 102.47973633 C-115.24677107 117.66506049 -113.47197964 136.03405689 -108.5 150.6875 C-108.28569336 151.32252441 -108.07138672 151.95754883 -107.85058594 152.61181641 C-102.43949486 168.25042096 -93.88913967 181.02478021 -83.5 193.6875 C-58.63847904 224.28987077 -58.63847904 224.28987077 -60.5 242.6875 C-61.5582823 246.16735402 -62.91151974 249.4183509 -64.5 252.6875 C-69.26872838 252.6875 -69.76150199 251.97603005 -73.11328125 248.81640625 C-73.99193848 247.99285645 -74.8705957 247.16930664 -75.77587891 246.32080078 C-80.11694908 242.12445889 -84.42794992 237.90419443 -88.6875 233.625 C-89.53763672 232.77873047 -90.38777344 231.93246094 -91.26367188 231.06054688 C-96.21846948 226.09809707 -100.94653553 221.01867945 -105.5 215.6875 C-106.46092938 214.59259872 -107.42311558 213.49879886 -108.38671875 212.40625 C-134.86024585 182.10544994 -157.93073441 146.81904462 -168.5 107.6875 C-168.71027832 106.94725586 -168.92055664 106.20701172 -169.13720703 105.44433594 C-175.08613883 83.90006513 -175.84997743 56.64306067 -167.5 35.6875 C-167.20528809 34.94097168 -166.91057617 34.19444336 -166.60693359 33.42529297 C-162.82808765 24.15208755 -158.37451599 16.0712394 -151.5 8.6875 C-150.71625 7.841875 -149.9325 6.99625 -149.125 6.125 C-148.25875 5.320625 -147.3925 4.51625 -146.5 3.6875 C-145.85160156 3.03394531 -145.20320313 2.38039063 -144.53515625 1.70703125 C-104.36718158 -37.12423877 -44.07096424 -22.7672878 0 0 Z " fill="#39B6FD" transform="translate(233.5,113.3125)"/>
<path d="M0 0 C1.49994863 0.04347677 2.99995466 0.08499879 4.5 0.125 C9.16187267 0.6148917 11.16365927 2.5025767 14.1015625 6.015625 C15.34860156 8.76995476 14.94095018 10.1553682 14 13 C10.42293936 18.99208181 6.35093921 23.13585095 0 26 C-0.66 26 -1.32 26 -2 26 C-1.94779297 27.61841797 -1.94779297 27.61841797 -1.89453125 29.26953125 C-1.709169 37.66190177 -1.98960527 45.81631265 -3.25 54.125 C-3.35932861 54.89303955 -3.46865723 55.6610791 -3.58129883 56.45239258 C-4.46858309 61.80464506 -6.03494274 68.03494274 -10 72 C-12.25 72.375 -12.25 72.375 -15 72 C-23.06134943 65.79896198 -27.09904633 55.07921076 -31 46 C-31.60585937 46.0721875 -32.21171875 46.144375 -32.8359375 46.21875 C-48.98488665 48.00755668 -48.98488665 48.00755668 -53 46 C-52.48517081 40.147205 -51.54642808 34.6702363 -50 29 C-48.906875 28.79375 -47.81375 28.5875 -46.6875 28.375 C-42.83597444 27.34892711 -42.83597444 27.34892711 -41.125 24.1875 C-39.91674327 21.16306788 -39.91674327 21.16306788 -39.74414062 18.484375 C-39 16 -39 16 -36.82617188 14.41015625 C-35.88322266 13.96542969 -34.94027344 13.52070313 -33.96875 13.0625 C-32.92976563 12.55976563 -31.89078125 12.05703125 -30.8203125 11.5390625 C-29.72460938 11.03117187 -28.62890625 10.52328125 -27.5 10 C-25.36371027 8.98099497 -23.22827987 7.9601863 -21.09375 6.9375 C-19.54494141 6.20490967 -19.54494141 6.20490967 -17.96484375 5.45751953 C-14.48742925 3.74801982 -11.14662815 1.85914753 -7.82226562 -0.12939453 C-4.94402193 -1.50450399 -2.99477069 -0.87347479 0 0 Z " fill="#FA3332" transform="translate(224,261)"/>
<path d="M0 0 C3.48301343 1.4067014 6.67429205 3.16724602 9.87109375 5.12109375 C10.53423584 5.52521484 11.19737793 5.92933594 11.88061523 6.34570312 C22.34369176 12.86774278 31.12336329 20.9776873 35.15625 32.95703125 C36.64804769 39.70146113 35.62586363 45.53310772 33.62109375 52.05859375 C30.53825932 52.20413721 27.45630936 52.29273196 24.37109375 52.37109375 C23.49839844 52.41298828 22.62570312 52.45488281 21.7265625 52.49804688 C19.26267725 52.54506759 17.04146113 52.52884619 14.62109375 52.05859375 C12.13671875 49.6015625 12.13671875 49.6015625 10.62109375 47.05859375 C8.42771844 45.73919198 8.42771844 45.73919198 4.85546875 46.4375 C2.25820741 46.46624115 1.05415784 46.40350396 -0.99804688 44.76904297 C-2.51577563 42.91340676 -3.83275116 41.01254617 -5.12890625 38.99609375 C-5.58394531 38.33931641 -6.03898438 37.68253906 -6.5078125 37.00585938 C-7.84509794 35.05003125 -9.11590224 33.06299106 -10.37890625 31.05859375 C-10.80365234 30.4258252 -11.22839844 29.79305664 -11.66601562 29.14111328 C-12.83203125 27.3125 -12.83203125 27.3125 -14.37890625 24.05859375 C-13.59765625 21.875 -13.59765625 21.875 -12.37890625 20.05859375 C-12.50949925 18.05948471 -12.50949925 18.05948471 -12.87890625 15.99609375 C-13.07390416 9.84852821 -8.93825599 6.29681613 -5.0546875 2.05078125 C-2.37890625 0.05859375 -2.37890625 0.05859375 0 0 Z " fill="#FB3332" transform="translate(255.37890625,155.94140625)"/>
<path d="M0 0 C2.7885289 -0.22107787 5.34653181 -0.28107535 8.125 -0.1875 C8.87910156 -0.17396484 9.63320313 -0.16042969 10.41015625 -0.14648438 C12.27374127 -0.11109985 14.13695978 -0.05729167 16 0 C14.69248561 3.66490488 13.12195206 6.40927914 10.6875 9.4375 C10.06875 10.20964844 9.45 10.98179687 8.8125 11.77734375 C8.214375 12.51082031 7.61625 13.24429688 7 14 C6.505 14.62003906 6.01 15.24007812 5.5 15.87890625 C2.27454453 19.86272773 2.27454453 19.86272773 0 21 C-0.70704765 23.52219939 -1.31398037 26.00788245 -1.875 28.5625 C-4.35832039 39.02471152 -7.58173796 47.18105025 -16.984375 53.2890625 C-21.1683332 55.54321052 -25.19466301 57.34947905 -30 57 C-33.05116724 54.76600472 -35.17775444 52.31213187 -37 49 C-36.875 45.375 -36.875 45.375 -36 42 C-36.28101563 41.12085938 -36.56203125 40.24171875 -36.8515625 39.3359375 C-37.08846927 34.01176945 -33.81890696 31.18025202 -30.5 27.25 C-29.19144377 25.65574908 -27.88542817 24.05940923 -26.58203125 22.4609375 C-25.95506348 21.69620117 -25.3280957 20.93146484 -24.68212891 20.14355469 C-22.60577329 17.49763272 -20.9171708 14.75640864 -19.1875 11.875 C-17.64453125 9.57421875 -17.64453125 9.57421875 -16 8 C-13.54213344 7.54102666 -11.55687105 7.66519214 -9.08203125 7.96875 C-6.64966867 8.22401868 -6.64966867 8.22401868 -4.0625 5.6875 C-2.64407617 3.83925077 -1.29233853 1.9385078 0 0 Z " fill="#FB3232" transform="translate(271,211)"/>
<path d="M0 0 C1.2375 0.2475 1.2375 0.2475 2.5 0.5 C3.7375 0.7475 3.7375 0.7475 5 1 C5.72832031 1.03351563 6.45664063 1.06703125 7.20703125 1.1015625 C11.55938554 2.50162052 14.07958221 5.62094187 17.1875 8.875 C17.81591797 9.51308594 18.44433594 10.15117187 19.09179688 10.80859375 C25.9729252 17.85899047 25.9729252 17.85899047 26.0546875 21.3046875 C25.96574219 22.57699219 25.96574219 22.57699219 25.875 23.875 C25.70296541 28.08657024 25.70296541 28.08657024 28.0625 31.5625 C30.29893593 34.37608069 30.22994621 34.89105126 29.875 38.3125 C29.17574891 42.60892939 28.14478672 46.80244869 27 51 C13.39708444 46.40871073 3.85711125 30.85811534 -2.4375 18.6875 C-8.30938001 6.1930735 -8.30938001 6.1930735 -7.69140625 1.8125 C-6.20013821 -2.09681283 -3.37960529 -0.78595472 0 0 Z " fill="#F83433" transform="translate(141,255)"/>
<path d="M0 0 C0.13496251 2.10241603 0.23197307 4.2072961 0.3125 6.3125 C0.37050781 7.48425781 0.42851562 8.65601563 0.48828125 9.86328125 C0.32714844 10.89839844 0.16601562 11.93351563 0 13 C-2.47265625 14.69921875 -2.47265625 14.69921875 -5 16 C-5.83003243 19.47677815 -5.83003243 19.47677815 -6 23 C-7.4431571 27.32947129 -10.5256498 28.83391635 -14.15258789 31.43530273 C-16.65983122 33.24574212 -19.05825634 35.05339354 -21.33984375 37.14453125 C-25.6233352 41.0610942 -28.76185528 42.53404176 -34.625 42.875 C-39.39515774 42.64012705 -41.91166789 41.88013739 -45.3125 38.5 C-46.24480727 37.36226909 -47.15524178 36.20416445 -48 35 C-47.01 34.505 -47.01 34.505 -46 34 C-45.71898437 33.26265625 -45.43796875 32.5253125 -45.1484375 31.765625 C-39.13082625 17.27423463 -21.17055804 7.68099575 -7.5390625 1.96875 C-2.48958333 0 -2.48958333 0 0 0 Z " fill="#FB3232" transform="translate(191,156)"/>
<path d="M0 0 C-1.46445209 1.73781648 -2.93798404 3.46409294 -4.4375 5.171875 C-6.10060077 7.05826991 -6.10060077 7.05826991 -7.75 9.5 C-11.06601425 11.71067616 -13.76333334 10.80191565 -17.5625 10.06640625 C-20.05236187 9.79936573 -20.05236187 9.79936573 -22.1875 11.15234375 C-24.28024182 13.28567754 -25.08463497 15.17762448 -26 18 C-34.35263176 18.95458649 -42.59784035 19.11039334 -51 19 C-51.33 18.01 -51.66 17.02 -52 16 C-54.475 15.01 -54.475 15.01 -57 14 C-57 9.38 -57 4.76 -57 0 C-40.62781913 -6.54887235 -15.98238781 -8.90060338 0 0 Z " fill="#FA3333" transform="translate(251,155)"/>
<path d="M0 0 C1.23810425 0.11009399 1.23810425 0.11009399 2.5012207 0.22241211 C3.34402588 0.28227295 4.18683105 0.34213379 5.05517578 0.40380859 C12.31565517 0.95987485 19.50738761 1.89076071 26.6887207 3.09741211 C28.76202569 7.48794032 28.76202569 7.48794032 28.46337891 9.97094727 C27.4713563 12.69408529 26.01341377 14.58483828 24.23168945 16.87084961 C23.18078125 18.23209961 23.18078125 18.23209961 22.10864258 19.62084961 C21.37194336 20.56186523 20.63524414 21.50288086 19.8762207 22.47241211 C13.52117722 30.59795669 13.52117722 30.59795669 7.6887207 39.09741211 C4.3840332 38.49731445 4.3840332 38.49731445 0.6887207 37.09741211 C-1.1315918 34.27172852 -1.1315918 34.27172852 -2.4362793 30.69897461 C-2.67290283 30.0676059 -2.90952637 29.43623718 -3.15332031 28.78573608 C-3.64646266 27.45391054 -4.12646923 26.1171559 -4.59399414 24.77612305 C-5.3102389 22.72539093 -6.06639269 20.69311613 -6.83081055 18.65991211 C-10.87861065 7.59516317 -10.87861065 7.59516317 -8.29956055 1.83959961 C-5.61303946 -0.51440512 -3.45314936 -0.21235275 0 0 Z " fill="#F83433" transform="translate(224.311279296875,207.902587890625)"/>
<path d="M0 0 C2.63012736 1.77131026 4.96069704 3.55901615 7 6 C7.487207 8.76437016 7.18290021 11.16504681 7 14 C7.7734375 14.99 7.7734375 14.99 8.5625 16 C10.49937158 18.69477784 9.87791574 20.51133891 9.41186523 23.67333984 C8.68774791 27.76393742 7.76249174 31.78454374 6.75 35.8125 C6.55792969 36.65748047 6.36585938 37.50246094 6.16796875 38.37304688 C4.61492741 44.52172313 4.61492741 44.52172313 1.43359375 46.99609375 C0.63050781 47.32738281 -0.17257813 47.65867188 -1 48 C-4.49127503 50.58612965 -4.9939087 53.89824315 -6 58 C-7.98 58.495 -7.98 58.495 -10 59 C-15.26413351 40.88947323 -10.32818072 18.37308998 -2 2 C-1.34 1.34 -0.68 0.68 0 0 Z " fill="#F93433" transform="translate(142,194)"/>
<path d="M0 0 C4.48404564 -0.024759 8.96805481 -0.04288799 13.45214844 -0.05493164 C14.97689507 -0.05995365 16.50163691 -0.0667725 18.02636719 -0.07543945 C20.22071519 -0.08759849 22.4149994 -0.09324968 24.609375 -0.09765625 C26.5888916 -0.10551147 26.5888916 -0.10551147 28.60839844 -0.11352539 C33.56751554 0.05246867 33.56751554 0.05246867 36 1 C38.03515625 3.4765625 38.03515625 3.4765625 39 7 C37.17245594 13.57091183 32.66890696 20.09390258 28 25 C24.52971811 26.88917435 22.93093847 27.07301706 19.05859375 26.46875 C13.13401908 23.62374352 9.27490571 18.69404165 5.26855469 13.60742188 C3.66337276 11.57345001 1.96162655 9.63216491 0.25 7.6875 C-0.4925 6.800625 -1.235 5.91375 -2 5 C-1.34 3.35 -0.68 1.7 0 0 Z " fill="#F93332" transform="translate(164,206)"/>
<path d="M0 0 C3.85466732 2.52473598 6.6076764 6.13551098 9.625 9.578125 C11.97937726 12.30861261 11.97937726 12.30861261 14.171875 14.3515625 C16.64069164 16.76918248 18.0546699 18.20865273 18.2421875 21.7421875 C17.83922701 24.38241822 17.56911864 26.13071182 16.1171875 28.38671875 C11.36793287 30.52753661 6.09934856 31.3285996 0.9921875 32.26171875 C-0.20470703 32.51308594 -0.20470703 32.51308594 -1.42578125 32.76953125 C-7.16949716 33.80512611 -7.16949716 33.80512611 -10.5 31.8515625 C-12.41226796 28.44297186 -11.85232914 26.82676753 -10.8828125 23.07421875 C-10.5734375 21.84703125 -10.2640625 20.61984375 -9.9453125 19.35546875 C-9.77128906 18.7109375 -9.59726563 18.06640625 -9.41796875 17.40234375 C-8.86824768 15.33186148 -8.37151952 13.25363176 -7.8828125 11.16796875 C-5.99976411 3.42137771 -5.99976411 3.42137771 -4.8828125 0.38671875 C-1.8828125 -0.61328125 -1.8828125 -0.61328125 0 0 Z " fill="#FB3232" transform="translate(159.8828125,212.61328125)"/>
<path d="M0 0 C4.74383896 1.60965342 6.8930233 5.43535836 9.484375 9.50927734 C10.05091797 10.32589844 10.61746094 11.14251953 11.20117188 11.98388672 C16.0032388 19.08634499 16.0032388 19.08634499 16.421875 23.82177734 C15.761875 24.81177734 15.101875 25.80177734 14.421875 26.82177734 C3.69238713 26.22829767 -6.91845817 25.16565211 -17.578125 23.82177734 C-18.568125 21.51177734 -19.558125 19.20177734 -20.578125 16.82177734 C-18.67119289 14.11481567 -16.69547724 11.46633458 -14.703125 8.82177734 C-14.166875 8.05865234 -13.630625 7.29552734 -13.078125 6.50927734 C-9.30837163 1.59983109 -6.34886655 -0.54553045 0 0 Z " fill="#FB3332" transform="translate(236.578125,181.17822265625)"/>
<path d="M0 0 C3.3046875 0.60009766 3.3046875 0.60009766 7 2 C8.8203125 4.82568359 8.8203125 4.82568359 10.125 8.3984375 C10.36162354 9.02980621 10.59824707 9.66117493 10.84204102 10.31167603 C11.33518336 11.64350157 11.81518994 12.98025621 12.28271484 14.32128906 C12.99895961 16.37202118 13.7551134 18.40429598 14.51953125 20.4375 C18.48191276 31.26875537 18.48191276 31.26875537 17 35 C10.21267406 37.1801306 2.33842202 33.6375973 -4.01464844 31.06542969 C-6.9023982 29.5157322 -7.96279999 27.83776873 -9.125 24.8125 C-9.6953125 22.26953125 -9.6953125 22.26953125 -10 20 C-10.33 19.01 -10.66 18.02 -11 17 C-10.10375977 15.09887695 -10.10375977 15.09887695 -8.69140625 12.98828125 C-8.19189453 12.23095703 -7.69238281 11.47363281 -7.17773438 10.69335938 C-6.64470703 9.90767578 -6.11167969 9.12199219 -5.5625 8.3125 C-5.03333984 7.51521484 -4.50417969 6.71792969 -3.95898438 5.89648438 C-2.64838154 3.92467651 -1.32853329 1.95975262 0 0 Z " fill="#FC3131" transform="translate(205,214)"/>
<path d="M0 0 C7.98676972 1.51473219 15.40122878 4.16802552 23 7 C22.90966797 9.26879883 22.90966797 9.26879883 22 12 C19.78655557 13.50150105 17.84574517 14.59176002 15.4453125 15.69921875 C14.78796112 16.02034134 14.13060974 16.34146393 13.45333862 16.6723175 C11.35173462 17.69464663 9.23917875 18.69147515 7.125 19.6875 C5.02091235 20.69962628 2.91930512 21.71675445 0.81808472 22.7348175 C-0.48962972 23.3661014 -1.7995199 23.99290266 -3.11178589 24.6146698 C-5.89320232 25.93755117 -8.43022565 27.2868171 -11 29 C-13.0625 28.8125 -13.0625 28.8125 -15 28 C-17 25 -17 25 -16.8190918 22.96289062 C-16.14700725 20.46196318 -15.43705871 17.97888456 -14.6875 15.5 C-14.46771484 14.63246094 -14.24792969 13.76492188 -14.02148438 12.87109375 C-13.24424147 10.2856122 -12.51316144 8.24056809 -11 6 C-8.67307399 4.75981076 -6.61374757 4.13819647 -4.03442383 3.61523438 C-1.6212961 3.12079514 -1.6212961 3.12079514 0 0 Z " fill="#F93333" transform="translate(196,246)"/>
<path d="M0 0 C1.74616176 1.61252694 2.94334325 2.9140462 4.03125 5.0390625 C4.08621289 8.59332958 3.07179559 11.66591944 2.03125 15.0390625 C1.85207031 15.96203125 1.67289063 16.885 1.48828125 17.8359375 C1.29621094 18.72796875 1.10414063 19.62 0.90625 20.5390625 C0.73867187 21.35375 0.57109375 22.1684375 0.3984375 23.0078125 C-1.29148306 25.51855162 -2.21377278 25.59625863 -5.0859375 26.3203125 C-6.36726563 26.5575 -7.64859375 26.7946875 -8.96875 27.0390625 C-9.63463135 26.3277417 -9.63463135 26.3277417 -10.31396484 25.60205078 C-12.32354519 23.45572851 -14.33364143 21.30989007 -16.34375 19.1640625 C-17.04242188 18.41769531 -17.74109375 17.67132813 -18.4609375 16.90234375 C-19.13125 16.18691406 -19.8015625 15.47148437 -20.4921875 14.734375 C-21.11013184 14.07453613 -21.72807617 13.41469727 -22.36474609 12.73486328 C-23.54717088 11.48476852 -24.75201969 10.25579281 -25.96875 9.0390625 C-25.59375 5.4140625 -25.59375 5.4140625 -24.96875 2.0390625 C-22.26148634 1.5325811 -19.55317876 1.0337115 -16.84375 0.5390625 C-15.70292969 0.32443359 -15.70292969 0.32443359 -14.5390625 0.10546875 C-3.7759538 -1.84302507 -3.7759538 -1.84302507 0 0 Z " fill="#F73434" transform="translate(177.96875,245.9609375)"/>
<path d="M0 0 C3.35577649 1.74253051 5.06993944 4.39559172 7.01953125 7.5234375 C7.38288574 8.10472412 7.74624023 8.68601074 8.12060547 9.28491211 C9.09375 11.01171875 9.09375 11.01171875 10.33203125 14.2109375 C9.6015625 16.44140625 9.6015625 16.44140625 8.33203125 18.2109375 C7.83703125 19.6959375 7.83703125 19.6959375 7.33203125 21.2109375 C2.86630761 21.26052698 -1.59926836 21.2967465 -6.06518555 21.32080078 C-7.58311761 21.33083295 -9.10103048 21.34446188 -10.61889648 21.36181641 C-12.80587515 21.38618785 -14.99259739 21.39744845 -17.1796875 21.40625 C-18.49412842 21.41672363 -19.80856934 21.42719727 -21.1628418 21.43798828 C-24.48179464 21.22299726 -26.70110882 20.65319573 -29.66796875 19.2109375 C-26.18056443 15.63394848 -22.5747425 12.34952517 -18.73046875 9.1484375 C-17.73144531 8.31183594 -16.73242188 7.47523438 -15.703125 6.61328125 C-6.15544264 -0.94376463 -6.15544264 -0.94376463 0 0 Z " fill="#F93332" transform="translate(192.66796875,182.7890625)"/>
<path d="M0 0 C1.32421875 2.05078125 1.32421875 2.05078125 2 5 C0.68399404 7.72393593 -1.22900816 9.89900587 -3.1875 12.1875 C-3.69603516 12.81591797 -4.20457031 13.44433594 -4.72851562 14.09179688 C-10.26776636 20.82677664 -10.26776636 20.82677664 -15.75 21.375 C-19.05551343 20.88961792 -19.94802793 20.06132704 -22.1484375 17.46484375 C-27.28827426 9.26751517 -27.28827426 9.26751517 -26.2421875 4.66796875 C-25 2 -25 2 -24 1 C-16.03086583 0.1022255 -8.01408459 -0.16619069 0 0 Z " fill="#F63535" transform="translate(225,176)"/>
<path d="M0 0 C1.59373901 2.39060851 2.65297076 4.30828179 3.6875 6.9375 C3.95949219 7.60652344 4.23148438 8.27554688 4.51171875 8.96484375 C5.0787676 11.32830338 4.76024003 12.7192799 4 15 C0.68177296 16.11378736 -1.24820779 15.87728255 -4.546875 14.78515625 C-5.39121094 14.51123047 -6.23554688 14.23730469 -7.10546875 13.95507812 C-7.97816406 13.66052734 -8.85085937 13.36597656 -9.75 13.0625 C-10.63816406 12.77181641 -11.52632812 12.48113281 -12.44140625 12.18164062 C-14.63082079 11.46360682 -16.81662189 10.73614477 -19 10 C-19.33 8.35 -19.66 6.7 -20 5 C-19.608125 5.474375 -19.21625 5.94875 -18.8125 6.4375 C-16.54664431 8.39082387 -14.95241494 8.70475851 -12 9 C-11.01 8.67 -10.02 8.34 -9 8 C-8.67 8.33 -8.34 8.66 -8 9 C-4.35245328 7.21924544 -4.35245328 7.21924544 -1 5 C0.04510361 2.37897003 0.04510361 2.37897003 0 0 Z " fill="#FC3232" transform="translate(218,234)"/>
<path d="M0 0 C4.73045822 4.24528302 4.73045822 4.24528302 5.9375 7.625 C6 10 6 10 4 13 C-4.02408469 12.50311992 -12.01795622 11.98025099 -20 11 C-20 10.67 -20 10.34 -20 10 C-15.05 10 -10.1 10 -5 10 C-4.32905022 8.65810043 -3.68332414 7.30331311 -3.0625 5.9375 C-2 4 -2 4 0 3 C0 2.01 0 1.02 0 0 Z " fill="#F73433" transform="translate(247,195)"/>
<path d="M0 0 C2.7885289 -0.22107787 5.34653181 -0.28107535 8.125 -0.1875 C8.87910156 -0.17396484 9.63320313 -0.16042969 10.41015625 -0.14648438 C12.27374127 -0.11109985 14.13695978 -0.05729167 16 0 C14.66117477 3.77548716 12.98364112 6.61387689 10.5 9.75 C9.58734375 10.91789063 9.58734375 10.91789063 8.65625 12.109375 C7 14 7 14 5 15 C4.91773332 11.95613276 5.02391783 9.92824652 6 7 C6.34820041 5.33637583 6.68404492 3.67004829 7 2 C4.69 2 2.38 2 0 2 C-0.33 2.99 -0.66 3.98 -1 5 C-1.33 4.34 -1.66 3.68 -2 3 C-1.34 2.01 -0.68 1.02 0 0 Z " fill="#EB3B3B" transform="translate(271,211)"/>
<path d="M0 0 C0.93818736 3.33441016 0.90782987 5.36868051 0.0625 8.75 C-0.13214844 9.54921875 -0.32679688 10.3484375 -0.52734375 11.171875 C-0.76130859 12.07679688 -0.76130859 12.07679688 -1 13 C-0.34 13 0.32 13 1 13 C1 12.34 1 11.68 1 11 C1.66 11 2.32 11 3 11 C3 11.66 3 12.32 3 13 C5.33214148 14.20628008 7.49642139 15.1654738 10 16 C8.59248779 16.86916887 7.1735479 17.71985149 5.75 18.5625 C4.96109375 19.03816406 4.1721875 19.51382812 3.359375 20.00390625 C1 21 1 21 -1.171875 20.83984375 C-3 20 -3 20 -5 17 C-4.76806641 15.09887695 -4.76806641 15.09887695 -4.1015625 12.98828125 C-3.86953125 12.23095703 -3.6375 11.47363281 -3.3984375 10.69335938 C-3.14320313 9.90767578 -2.88796875 9.12199219 -2.625 8.3125 C-2.3775 7.51521484 -2.13 6.71792969 -1.875 5.89648438 C-1.26183045 3.92726679 -0.63244079 1.9631132 0 0 Z " fill="#EB3B3A" transform="translate(184,254)"/>
<path d="M0 0 C-1.26839526 0.50615298 -2.53983102 1.00469099 -3.8125 1.5 C-4.87404297 1.91765625 -4.87404297 1.91765625 -5.95703125 2.34375 C-8 3 -8 3 -11 3 C-11.33 3.99 -11.66 4.98 -12 6 C-12.66 5.67 -13.32 5.34 -14 5 C-14 6.32 -14 7.64 -14 9 C-14.375 11.1875 -14.375 11.1875 -15 13 C-15.99 13.495 -15.99 13.495 -17 14 C-17 14.99 -17 15.98 -17 17 C-17.66 17 -18.32 17 -19 17 C-19 12.38 -19 7.76 -19 3 C-15.45679808 1.58271923 -12.59365672 0.56407472 -8.9375 -0.1875 C-8.10089844 -0.36667969 -7.26429688 -0.54585937 -6.40234375 -0.73046875 C-3.95093314 -1.00550506 -2.32744526 -0.75789788 0 0 Z " fill="#ED3D3D" transform="translate(213,152)"/>
<path d="M0 0 C0.33 0.66 0.66 1.32 1 2 C0.02059602 4.34205301 -0.98034573 6.67518826 -2 9 C-2 9.99 -2 10.98 -2 12 C-0.02 11.34 1.96 10.68 4 10 C4 10.99 4 11.98 4 13 C4.99 13.99 5.98 14.98 7 16 C1.72 14.68 -3.56 13.36 -9 12 C-9 9 -9 9 -7.03125 6.73828125 C-5.77828125 5.53751953 -5.77828125 5.53751953 -4.5 4.3125 C-3.6646875 3.50425781 -2.829375 2.69601563 -1.96875 1.86328125 C-1.3190625 1.24839844 -0.669375 0.63351563 0 0 Z " fill="#F13736" transform="translate(249,127)"/>
<path d="M0 0 C0 4.29 0 8.58 0 13 C-1.65 13.66 -3.3 14.32 -5 15 C-4.25749403 10.91621717 -3.17076699 6.98060777 -2 3 C-3.7726041 3.61996001 -5.54302667 4.24615993 -7.3125 4.875 C-8.79169922 5.39707031 -8.79169922 5.39707031 -10.30078125 5.9296875 C-13.15594377 6.95305924 -13.15594377 6.95305924 -16 9 C-18.1875 8.625 -18.1875 8.625 -20 8 C-4.56916996 0 -4.56916996 0 0 0 Z " fill="#E04342" transform="translate(191,156)"/>
<path d="M0 0 C0.33 0 0.66 0 1 0 C0.99476318 0.65597168 0.98952637 1.31194336 0.98413086 1.98779297 C0.96338728 4.95018563 0.95034824 7.91256303 0.9375 10.875 C0.92912109 11.90753906 0.92074219 12.94007813 0.91210938 14.00390625 C0.90888672 14.99003906 0.90566406 15.97617188 0.90234375 16.9921875 C0.89710693 17.90339355 0.89187012 18.81459961 0.88647461 19.75341797 C0.85114435 22.03687509 0.85114435 22.03687509 2 24 C1.91348369 25.54613014 1.75997364 27.08909387 1.5625 28.625 C1.46066406 29.44226563 1.35882813 30.25953125 1.25390625 31.1015625 C1.17011719 31.72804687 1.08632812 32.35453125 1 33 C1.66 33 2.32 33 3 33 C2.938125 32.05125 2.87625 31.1025 2.8125 30.125 C2.874375 29.09375 2.93625 28.0625 3 27 C3.99 26.34 4.98 25.68 6 25 C5.67 27.64 5.34 30.28 5 33 C3.35 33.66 1.7 34.32 0 35 C-0.97712265 31.72707576 -1.12892192 28.76026747 -1.1328125 25.3515625 C-1.13410156 24.26359375 -1.13539063 23.175625 -1.13671875 22.0546875 C-1.13091797 20.35699219 -1.13091797 20.35699219 -1.125 18.625 C-1.12886719 17.5009375 -1.13273438 16.376875 -1.13671875 15.21875 C-1.13542969 14.12820312 -1.13414062 13.03765625 -1.1328125 11.9140625 C-1.13168457 10.9235791 -1.13055664 9.9330957 -1.12939453 8.91259766 C-0.9943708 5.87328981 -0.55857174 2.98810919 0 0 Z " fill="#E44244" transform="translate(132,218)"/>
<path d="M0 0 C1.94158017 3.51624755 2.18311068 5.9715651 2 10 C5.68049391 11.15672666 7.93376192 10.5212561 11.62890625 9.48046875 C16.04080353 8.58645991 20.51994145 8.85176277 25 9 C25 9.33 25 9.66 25 10 C21.25681426 10.78719357 17.50533241 11.52316147 13.75 12.25 C12.68652344 12.47429687 11.62304688 12.69859375 10.52734375 12.9296875 C9.50253906 13.12304688 8.47773438 13.31640625 7.421875 13.515625 C6.47924805 13.70415039 5.53662109 13.89267578 4.56542969 14.08691406 C2 14 2 14 -0.34179688 12.19140625 C-2 10 -2 10 -1.953125 7.421875 C-1.72109375 6.54015625 -1.4890625 5.6584375 -1.25 4.75 C-1.02828125 3.85796875 -0.8065625 2.9659375 -0.578125 2.046875 C-0.29195312 1.03367188 -0.29195312 1.03367188 0 0 Z " fill="#E34142" transform="translate(150,232)"/>
<path d="M0 0 C1.16616729 3.94769225 0.64161869 6.93641495 0 11 C-0.25637544 14.67471459 0.11546836 16.81985285 2 20 C-0.31 21.32 -2.62 22.64 -5 24 C-4.61375277 15.61843511 -2.4744657 7.98734511 0 0 Z " fill="#F03738" transform="translate(278,385)"/>
<path d="M0 0 C4.89644351 5.68619247 4.89644351 5.68619247 5 9 C3.9597168 11.59448242 3.9597168 11.59448242 2 14 C-0.64887068 14.45867463 -2.65434237 14.58776379 -5.29296875 14.48828125 C-6.35201164 14.47766914 -6.35201164 14.47766914 -7.43244934 14.46684265 C-9.68521584 14.4388753 -11.93548648 14.37614334 -14.1875 14.3125 C-15.71545886 14.28741966 -17.24345673 14.26460601 -18.77148438 14.24414062 C-22.51528306 14.18904244 -26.25721859 14.10276286 -30 14 C-30 13.67 -30 13.34 -30 13 C-19.77 13 -9.54 13 1 13 C0.67 10.03 0.34 7.06 0 4 C0 2.68 0 1.36 0 0 Z " fill="#D24644" transform="translate(198,190)"/>
<path d="M0 0 C-0.9075 0.4125 -1.815 0.825 -2.75 1.25 C-5.79665618 2.89050718 -7.71126806 4.44718361 -10 7 C-10.33 6.01 -10.66 5.02 -11 4 C-11.66 4 -12.32 4 -13 4 C-12.67 5.65 -12.34 7.3 -12 9 C-13.32 9 -14.64 9 -16 9 C-16.66 7.35 -17.32 5.7 -18 4 C-16.41800369 3.35089846 -14.83434276 2.70585306 -13.25 2.0625 C-12.36828125 1.70285156 -11.4865625 1.34320313 -10.578125 0.97265625 C-6.58962451 -0.53209621 -4.12612305 -1.32625384 0 0 Z " fill="#44B3F1" transform="translate(132,95)"/>
<path d="M0 0 C6.30267439 0.36776168 11.33251843 1.16625922 17 4 C15.68 5.32 14.36 6.64 13 8 C13 7.34 13 6.68 13 6 C11.35 6.33 9.7 6.66 8 7 C8 6.01 8 5.02 8 4 C6.865625 3.71125 5.73125 3.4225 4.5625 3.125 C3.386875 2.75375 2.21125 2.3825 1 2 C0.67 1.34 0.34 0.68 0 0 Z " fill="#E83E3C" transform="translate(234,151)"/>
<path d="M0 0 C1.32 0.99 2.64 1.98 4 3 C0.04 6.96 -3.92 10.92 -8 15 C-8.33 14.01 -8.66 13.02 -9 12 C-8.67 11.34 -8.34 10.68 -8 10 C-7.34 10 -6.68 10 -6 10 C-6 9.34 -6 8.68 -6 8 C-5.34 8 -4.68 8 -4 8 C-3.896875 7.4225 -3.79375 6.845 -3.6875 6.25 C-2.90207202 3.67950842 -1.69495803 2.06342716 0 0 Z " fill="#4CB3ED" transform="translate(148,162)"/>
<path d="M0 0 C10.56 0 21.12 0 32 0 C32 0.33 32 0.66 32 1 C21.77 1 11.54 1 1 1 C1.33 3.31 1.66 5.62 2 8 C0.68 7.01 -0.64 6.02 -2 5 C-1.34 3.35 -0.68 1.7 0 0 Z " fill="#D64544" transform="translate(164,206)"/>
<path d="M0 0 C0 3.33806496 -0.58108945 4.35678608 -2.3125 7.125 C-2.74175781 7.82882813 -3.17101562 8.53265625 -3.61328125 9.2578125 C-5 11 -5 11 -8 12 C-9.17082878 14.92914165 -9.17082878 14.92914165 -10 18 C-10.33 18.66 -10.66 19.32 -11 20 C-11.99 18.68 -12.98 17.36 -14 16 C-13.34 16 -12.68 16 -12 16 C-11.77570313 15.29488281 -11.55140625 14.58976563 -11.3203125 13.86328125 C-9.72312689 10.39956216 -7.47480765 7.9147492 -4.875 5.1875 C-4.40707031 4.68541016 -3.93914062 4.18332031 -3.45703125 3.66601562 C-2.31098175 2.43810545 -1.15634689 1.21821785 0 0 Z " fill="#DF4140" transform="translate(157,174)"/>
<path d="M0 0 C1.32 0.33 2.64 0.66 4 1 C0.12181659 4.66030793 -2.31035212 5.54887033 -7.625 5.5 C-9.31496094 5.51546875 -9.31496094 5.51546875 -11.0390625 5.53125 C-14 5 -14 5 -17 1 C-11.72 1.66 -6.44 2.32 -1 3 C-0.67 2.01 -0.34 1.02 0 0 Z " fill="#E33F43" transform="translate(164,193)"/>
<path d="M0 0 C0.99 0.33 1.98 0.66 3 1 C1.71480435 3.86697492 0.42870746 5.97607712 -2 8 C-2.66 8 -3.32 8 -4 8 C-4 11.3 -4 14.6 -4 18 C-4.66 18 -5.32 18 -6 18 C-6.92017937 8.57668161 -6.92017937 8.57668161 -4.6640625 4.7109375 C-3.18463384 3.02313861 -1.69077361 1.47439485 0 0 Z " fill="#ED3E3D" transform="translate(249,160)"/>
<path d="M0 0 C0.928125 0.103125 1.85625 0.20625 2.8125 0.3125 C2.8125 0.9725 2.8125 1.6325 2.8125 2.3125 C0.8325 2.3125 -1.1475 2.3125 -3.1875 2.3125 C-2.1975 2.9725 -1.2075 3.6325 -0.1875 4.3125 C-0.5175 4.9725 -0.8475 5.6325 -1.1875 6.3125 C-2.20412907 9.3623872 -2.17090151 11.25302863 -1.1875 14.3125 C-6.08394351 8.62630753 -6.08394351 8.62630753 -6.1875 5.3125 C-4.70523464 1.47604849 -4.19853803 0.41162138 0 0 Z " fill="#E53F3F" transform="translate(204.1875,176.6875)"/>
<path d="M0 0 C1.32 0 2.64 0 4 0 C4 0.99 4 1.98 4 3 C4.68707031 2.855625 5.37414062 2.71125 6.08203125 2.5625 C6.98308594 2.376875 7.88414062 2.19125 8.8125 2 C10.15248047 1.7215625 10.15248047 1.7215625 11.51953125 1.4375 C14 1 14 1 17 1 C16.67 2.32 16.34 3.64 16 5 C11.96067147 5.28580155 8.02994957 5.45551292 4 5 C1.25 2.5 1.25 2.5 0 0 Z " fill="#E83E40" transform="translate(176,226)"/>
<path d="M0 0 C2.64 0 5.28 0 8 0 C9.125 1.75 9.125 1.75 10 4 C9.0546875 6.140625 9.0546875 6.140625 8 8 C6.85073734 7.04578192 5.70569459 6.08647955 4.5625 5.125 C3.92441406 4.59132812 3.28632813 4.05765625 2.62890625 3.5078125 C1 2 1 2 0 0 Z " fill="#F13735" transform="translate(278,156)"/>
<path d="M0 0 C0.66 0 1.32 0 2 0 C2.86585625 2.9550405 3.71566785 5.91445682 4.5625 8.875 C4.80935547 9.71675781 5.05621094 10.55851562 5.31054688 11.42578125 C5.53935547 12.23144531 5.76816406 13.03710938 6.00390625 13.8671875 C6.21861572 14.61081543 6.4333252 15.35444336 6.65454102 16.12060547 C7 18 7 18 6 20 C5.34 20 4.68 20 4 20 C4.33 18.35 4.66 16.7 5 15 C4.34 15 3.68 15 3 15 C0.73045369 11.59568053 0.63450051 9.83475798 0.375 5.8125 C0.30023438 4.72582031 0.22546875 3.63914063 0.1484375 2.51953125 C0.09945312 1.68808594 0.05046875 0.85664063 0 0 Z " fill="#4BB3EF" transform="translate(120,252)"/>
<path d="M0 0 C3.3 0.99 6.6 1.98 10 3 C9.67 4.65 9.34 6.3 9 8 C7.68 8.33 6.36 8.66 5 9 C4.731875 8.071875 4.46375 7.14375 4.1875 6.1875 C3.15401517 2.73825541 3.15401517 2.73825541 0 0 Z " fill="#EA3B3B" transform="translate(209,250)"/>
<path d="M0 0 C0.66 0.33 1.32 0.66 2 1 C0.36630142 4.26739717 -2.70894675 4.71704704 -6 6 C-7.32276056 6.37308631 -8.65232077 6.73046415 -10 7 C-10 7.66 -10 8.32 -10 9 C-10.99 9 -11.98 9 -13 9 C-13.33 9.99 -13.66 10.98 -14 12 C-15.32 11.67 -16.64 11.34 -18 11 C-15.7516034 9.53914338 -13.50137827 8.08124864 -11.25 6.625 C-10.61578125 6.2125 -9.9815625 5.8 -9.328125 5.375 C-2.51727594 0.97632665 -2.51727594 0.97632665 0 0 Z " fill="#4EB0E9" transform="translate(111,100)"/>
<path d="M0 0 C1.24546405 2.49092811 0.7767578 3.41080733 0 6 C1.32 6.66 2.64 7.32 4 8 C3.67 9.98 3.34 11.96 3 14 C2.401875 13.236875 1.80375 12.47375 1.1875 11.6875 C-0.8143414 9.06777452 -0.8143414 9.06777452 -2.8125 7.4375 C-4 6 -4 6 -3.875 3.9375 C-3 2 -3 2 0 0 Z " fill="#E83C3D" transform="translate(346,261)"/>
<path d="M0 0 C0.66 0 1.32 0 2 0 C1.69723124 6.05537521 -1.27754038 9.51483458 -5 14 C-5.99 12.68 -6.98 11.36 -8 10 C-7.01 10 -6.02 10 -5 10 C-4.34 8.35 -3.68 6.7 -3 5 C-2.01 5 -1.02 5 0 5 C0 3.35 0 1.7 0 0 Z " fill="#E93C3D" transform="translate(265,245)"/>
<path d="M0 0 C0.33 0.66 0.66 1.32 1 2 C1.66 2.33 2.32 2.66 3 3 C2.67 3.66 2.34 4.32 2 5 C-4.43255401 5.12086218 -10.61773055 4.82351864 -17 4 C-17 3.67 -17 3.34 -17 3 C-12.05 3 -7.1 3 -2 3 C-1.67 2.34 -1.34 1.68 -1 1 C-0.67 0.67 -0.34 0.34 0 0 Z " fill="#E83F3F" transform="translate(244,202)"/>
<path d="M0 0 C4.48873309 3.52686171 6.58485642 8.58251782 8 14 C7.60546875 16.3125 7.60546875 16.3125 7 18 C6.67 17.34 6.34 16.68 6 16 C5.34 16 4.68 16 4 16 C4.33 13.69 4.66 11.38 5 9 C4.01 8.67 3.02 8.34 2 8 C2.33 7.34 2.66 6.68 3 6 C2.34 6 1.68 6 1 6 C0.67 4.02 0.34 2.04 0 0 Z " fill="#3EB9ED" transform="translate(164,327)"/>
<path d="M0 0 C2.38125464 2.38125464 3.00186241 4.33857567 4.125 7.5 C4.47820312 8.4796875 4.83140625 9.459375 5.1953125 10.46875 C6 13 6 13 6 15 C4 15 4 15 2.375 13.5 C1.92125 13.005 1.4675 12.51 1 12 C1.33 11.01 1.66 10.02 2 9 C1.04134491 6.66924071 1.04134491 6.66924071 -2 5 C-1.34 5 -0.68 5 0 5 C0 3.35 0 1.7 0 0 Z M0 13 C0.99 13.495 0.99 13.495 2 14 C1.01 14.495 1.01 14.495 0 15 C0 14.34 0 13.68 0 13 Z " fill="#E63E3F" transform="translate(211,216)"/>
<path d="M0 0 C1.32 0 2.64 0 4 0 C2.63629701 2.99220268 1.05091917 5.29026529 -1.125 7.75 C-1.93324219 8.67039062 -1.93324219 8.67039062 -2.7578125 9.609375 C-3.16773438 10.06828125 -3.57765625 10.5271875 -4 11 C-4.33 9.68 -4.66 8.36 -5 7 C-4.01 7 -3.02 7 -2 7 C-2.66 5.68 -3.32 4.36 -4 3 C-2.35 3 -0.7 3 1 3 C0.67 2.01 0.34 1.02 0 0 Z M-5 5 C-3 6 -3 6 -3 6 Z " fill="#EB3B3C" transform="translate(385,301)"/>
<path d="M0 0 C2.97 0.495 2.97 0.495 6 1 C6 1.33 6 1.66 6 2 C4.576875 2.309375 4.576875 2.309375 3.125 2.625 C-0.2895788 3.69520182 -0.2895788 3.69520182 -1.25 7.0625 C-1.4975 8.031875 -1.745 9.00125 -2 10 C-2.99 10.495 -2.99 10.495 -4 11 C-5.0194119 11.98020375 -6.02246356 12.97803008 -7 14 C-7 10.11708254 -5.62139506 8.53247465 -3.5 5.3125 C-2.8503125 4.31863281 -2.200625 3.32476562 -1.53125 2.30078125 C-0.77328125 1.16189453 -0.77328125 1.16189453 0 0 Z " fill="#E33D3E" transform="translate(205,214)"/>
<path d="M0 0 C0.94875 0.04125 1.8975 0.0825 2.875 0.125 C-0.875 3.125 -0.875 3.125 -3.125 3.125 C-3.125 9.065 -3.125 15.005 -3.125 21.125 C-3.455 21.125 -3.785 21.125 -4.125 21.125 C-4.35037111 18.00098221 -4.55238648 14.87588667 -4.75 11.75 C-4.81445312 10.86054688 -4.87890625 9.97109375 -4.9453125 9.0546875 C-4.996875 8.20390625 -5.0484375 7.353125 -5.1015625 6.4765625 C-5.15393066 5.69104004 -5.20629883 4.90551758 -5.26025391 4.09619141 C-5.00892746 0.43335799 -3.4053694 0.13621478 0 0 Z " fill="#E84040" transform="translate(225.125,283.875)"/>
<path d="M0 0 C1.85625 0.1546875 1.85625 0.1546875 3.75 0.3125 C2.43 0.6425 1.11 0.9725 -0.25 1.3125 C-0.25 1.9725 -0.25 2.6325 -0.25 3.3125 C-1.425625 3.993125 -1.425625 3.993125 -2.625 4.6875 C-5.3735949 6.38901113 -6.12921032 7.35769084 -7.25 10.3125 C-8 8.125 -8 8.125 -8.25 5.3125 C-6.14964023 1.20310044 -4.49932993 0 0 0 Z " fill="#E43F3F" transform="translate(222.25,207.6875)"/>
<path d="M0 0 C0.391875 0.474375 0.78375 0.94875 1.1875 1.4375 C3.45335569 3.39082387 5.04758506 3.70475851 8 4 C8.99 3.67 9.98 3.34 11 3 C11 3.66 11 4.32 11 5 C11.66 5.33 12.32 5.66 13 6 C13 6.66 13 7.32 13 8 C11.58194169 7.71517632 10.16559621 7.42181856 8.75 7.125 C7.96109375 6.96257812 7.1721875 6.80015625 6.359375 6.6328125 C4.03168856 6.00849925 2.10968048 5.15161458 0 4 C0 2.68 0 1.36 0 0 Z " fill="#EA3F3E" transform="translate(198,239)"/>
<path d="M0 0 C0.33 0.66 0.66 1.32 1 2 C1.928125 2 2.85625 2 3.8125 2 C6.875 2 9.9375 2 13 2 C13 2.66 13 3.32 13 4 C13.99 4.99 14.98 5.98 16 7 C10.72 5.68 5.44 4.36 0 3 C0 2.01 0 1.02 0 0 Z " fill="#E2423F" transform="translate(240,136)"/>
<path d="M0 0 C0.66 0.33 1.32 0.66 2 1 C2 2.32 2 3.64 2 5 C0.68 4.67 -0.64 4.34 -2 4 C-2 4.66 -2 5.32 -2 6 C-5.22791555 8.1519437 -6.28400809 8.20086443 -10 8 C-6.97727468 4.74475735 -3.74281699 2.38179263 0 0 Z " fill="#EA3B3C" transform="translate(269,111)"/>
<path d="M0 0 C0.66 0 1.32 0 2 0 C2.20496094 0.68707031 2.40992188 1.37414062 2.62109375 2.08203125 C2.89050781 2.98308594 3.15992188 3.88414062 3.4375 4.8125 C3.83775391 6.15248047 3.83775391 6.15248047 4.24609375 7.51953125 C4.80387873 9.35473055 5.39344575 11.18033726 6 13 C6.66 13 7.32 13 8 13 C8 14.65 8 16.3 8 18 C3.54680875 13.22872367 0 6.63054878 0 0 Z " fill="#DF4141" transform="translate(135,262)"/>
<path d="M0 0 C1.69193359 3.38386718 0.24788179 7.03184949 -0.4375 10.625 C-0.58509766 11.42679688 -0.73269531 12.22859375 -0.88476562 13.0546875 C-1.2506507 15.03754855 -1.62457121 17.01892377 -2 19 C-2.33 19 -2.66 19 -3 19 C-3.0814222 16.77144426 -3.13938079 14.54202345 -3.1875 12.3125 C-3.22230469 11.07113281 -3.25710937 9.82976562 -3.29296875 8.55078125 C-2.9846829 4.81435679 -2.18088273 2.99370517 0 0 Z " fill="#52B1EC" transform="translate(122,207)"/>
<path d="M0 0 C5 5.80645161 5 5.80645161 5 9 C3.0625 11.25 3.0625 11.25 1 13 C0.83052421 11.58366664 0.66454493 10.16691467 0.5 8.75 C0.4071875 7.96109375 0.314375 7.1721875 0.21875 6.359375 C0 4 0 4 0 0 Z " fill="#E53E3C" transform="translate(198,190)"/>
<path d="M0 0 C0.99 0 1.98 0 3 0 C3.33 0.99 3.66 1.98 4 3 C5.95713056 5.35843975 5.95713056 5.35843975 9.5625 5.5 C11.2640625 5.7475 11.2640625 5.7475 13 6 C13.33 6.66 13.66 7.32 14 8 C11.36 8.33 8.72 8.66 6 9 C4.02 6.03 2.04 3.06 0 0 Z " fill="#DF4242" transform="translate(250,193)"/>
<path d="M0 0 C6.95660771 0.57021375 13.31427305 2.01302694 20 4 C17 6 17 6 14 6 C14 5.34 14 4.68 14 4 C13.24074219 3.87882812 12.48148437 3.75765625 11.69921875 3.6328125 C10.70535156 3.46523437 9.71148437 3.29765625 8.6875 3.125 C7.20830078 2.88136719 7.20830078 2.88136719 5.69921875 2.6328125 C3 2 3 2 0 0 Z " fill="#E44240" transform="translate(356,93)"/>
<path d="M0 0 C2.31 1.98 4.62 3.96 7 6 C6.34 9.3 5.68 12.6 5 16 C4.67 16 4.34 16 4 16 C4.33 13.36 4.66 10.72 5 8 C4.34 8 3.68 8 3 8 C1.92474806 5.34771188 0.90543849 2.71631546 0 0 Z " fill="#E14144" transform="translate(175,245)"/>
<path d="M0 0 C1.32 0.66 2.64 1.32 4 2 C3.04578192 3.14926266 2.08647955 4.29430541 1.125 5.4375 C0.59132812 6.07558594 0.05765625 6.71367188 -0.4921875 7.37109375 C-2 9 -2 9 -4 10 C-4 9.01 -4 8.02 -4 7 C-3.34 6.67 -2.68 6.34 -2 6 C-2.33 4.68 -2.66 3.36 -3 2 C-2.01 2 -1.02 2 0 2 C0 1.34 0 0.68 0 0 Z " fill="#59B0EA" transform="translate(240,118)"/>
<path d="M0 0 C0.33 0.66 0.66 1.32 1 2 C-0.89467269 7.12676141 -3.31614016 9.29376987 -8 12 C-6.59023295 8.96147295 -4.91129772 6.4060405 -2.875 3.75 C-2.06675781 2.69039062 -2.06675781 2.69039062 -1.2421875 1.609375 C-0.83226562 1.07828125 -0.42234375 0.5471875 0 0 Z " fill="#E53B3C" transform="translate(245,233)"/>
<path d="M0 0 C0.66 0.66 1.32 1.32 2 2 C1.979375 3.11375 1.95875 4.2275 1.9375 5.375 C2.00647597 9.37560615 2.63943374 10.02363385 5 13 C4.6875 15.25 4.6875 15.25 4 17 C1.05148444 14.65511755 0.06964494 13.57666013 -0.390625 9.765625 C-0.34421875 8.60546875 -0.2978125 7.4453125 -0.25 6.25 C-0.21390625 5.07953125 -0.1778125 3.9090625 -0.140625 2.703125 C-0.09421875 1.81109375 -0.0478125 0.9190625 0 0 Z " fill="#E73D42" transform="translate(147,199)"/>
<path d="M0 0 C1.65 0 3.3 0 5 0 C5 0.66 5 1.32 5 2 C5.99 2.33 6.98 2.66 8 3 C4.62902617 4.49821059 2.79557881 5 -1 5 C-0.67 3.35 -0.34 1.7 0 0 Z " fill="#49B3F6" transform="translate(176,144)"/>
<path d="M0 0 C2 3 2 3 1.625 5.1875 C1.41875 5.785625 1.2125 6.38375 1 7 C-3.00200378 8.60080151 -6.04556236 7.29279692 -10 6 C-10 5.67 -10 5.34 -10 5 C-2.25 4.875 -2.25 4.875 0 6 C0 4.02 0 2.04 0 0 Z " fill="#D94543" transform="translate(221,242)"/>
<path d="M0 0 C0.66 0.33 1.32 0.66 2 1 C0.68 2.65 -0.64 4.3 -2 6 C-1.34 6 -0.68 6 0 6 C0 6.66 0 7.32 0 8 C-0.99 8 -1.98 8 -3 8 C-3 8.66 -3 9.32 -3 10 C-3.66 10 -4.32 10 -5 10 C-4.745504 8.51793505 -4.47088238 7.03931385 -4.1875 5.5625 C-4.03667969 4.73878906 -3.88585937 3.91507813 -3.73046875 3.06640625 C-3.48941406 2.38449219 -3.24835938 1.70257813 -3 1 C-2.01 0.67 -1.02 0.34 0 0 Z " fill="#EC3F40" transform="translate(158,212)"/>
<path d="M0 0 C0.99 0.33 1.98 0.66 3 1 C2.67 3.31 2.34 5.62 2 8 C0.68 7.67 -0.64 7.34 -2 7 C-1.125 2.25 -1.125 2.25 0 0 Z " fill="#FC302A" transform="translate(203,180)"/>
<path d="M0 0 C2.9375 0.8125 2.9375 0.8125 6 2 C7 5 7 5 6 8 C5.01 7.67 4.02 7.34 3 7 C1.3125 3.4375 1.3125 3.4375 0 0 Z " fill="#4CBCF6" transform="translate(79,257)"/>
<path d="M0 0 C-0.11442461 1.60495567 -0.24194694 3.20898119 -0.375 4.8125 C-0.44460938 5.70582031 -0.51421875 6.59914062 -0.5859375 7.51953125 C-1 10 -1 10 -3 13 C-4.4480619 4.83502445 -4.4480619 4.83502445 -2.625 1.4375 C-1 0 -1 0 0 0 Z " fill="#E93F3C" transform="translate(270,232)"/>
<path d="M0 0 C1 2 1 2 0.44140625 3.9453125 C0.15136719 4.66460937 -0.13867188 5.38390625 -0.4375 6.125 C-0.72496094 6.84945312 -1.01242188 7.57390625 -1.30859375 8.3203125 C-1.53675781 8.87460938 -1.76492187 9.42890625 -2 10 C-2.66 10 -3.32 10 -4 10 C-4.625 7.625 -4.625 7.625 -5 5 C-3.33333333 3.33333333 -1.66666667 1.66666667 0 0 Z " fill="#4DB3F4" transform="translate(126,196)"/>
<path d="M0 0 C0.99 0.33 1.98 0.66 3 1 C2.34 1 1.68 1 1 1 C0.87625 1.639375 0.7525 2.27875 0.625 2.9375 C0.41875 3.618125 0.2125 4.29875 0 5 C-0.99 5.495 -0.99 5.495 -2 6 C-2.65213292 8.02463255 -2.65213292 8.02463255 -3 10 C-3.99 9.67 -4.98 9.34 -6 9 C-4.47291037 5.56404834 -2.40072955 2.88087546 0 0 Z " fill="#E4403E" transform="translate(229,182)"/>
<path d="M0 0 C0 3.23655184 -0.6550847 4.78752639 -2 7.6875 C-2.556875 8.89986328 -2.556875 8.89986328 -3.125 10.13671875 C-3.41375 10.75160156 -3.7025 11.36648438 -4 12 C-4.99 12 -5.98 12 -7 12 C-5.44298069 7.32894208 -2.91552627 3.91294315 0 0 Z " fill="#E63C3D" transform="translate(292,359)"/>
<path d="M0 0 C2.9375 1.0625 2.9375 1.0625 6 3 C6.875 6.6875 6.875 6.6875 7 10 C3.60582235 6.87378374 1.3937282 4.43458973 0 0 Z " fill="#E83C40" transform="translate(143,280)"/>
<path d="M0 0 C0.99 0.66 1.98 1.32 3 2 C2.67 4.97 2.34 7.94 2 11 C0.19193628 8.28790442 -1.06810009 6.10633303 -2 3 C-1.34 2.01 -0.68 1.02 0 0 Z " fill="#E73D3F" transform="translate(196,228)"/>
<path d="M0 0 C1.5625 1.1875 1.5625 1.1875 3 3 C2.57894737 7.42105263 2.57894737 7.42105263 1 9 C-0.66617115 9.04063832 -2.33388095 9.042721 -4 9 C-3.01 8.67 -2.02 8.34 -1 8 C-0.67 5.36 -0.34 2.72 0 0 Z " fill="#E23F42" transform="translate(250,199)"/>
<path d="M0 0 C0 0.99 0 1.98 0 3 C-4.12168689 4.62950412 -6.70700357 5.26264601 -11 4 C-7.88789178 0.88789178 -4.34860953 0 0 0 Z " fill="#F03A36" transform="translate(302,97)"/>
<path d="M0 0 C0.66 0 1.32 0 2 0 C2 1.65 2 3.3 2 5 C0.02 5.99 0.02 5.99 -2 7 C-2 7.99 -2 8.98 -2 10 C-3.32 9.34 -4.64 8.68 -6 8 C-4.7934375 7.4121875 -4.7934375 7.4121875 -3.5625 6.8125 C-0.76935262 5.23051809 -0.76935262 5.23051809 -0.1875 2.3125 C-0.125625 1.549375 -0.06375 0.78625 0 0 Z " fill="#E04240" transform="translate(349,276)"/>
<path d="M0 0 C0 0.99 0 1.98 0 3 C-0.66 3 -1.32 3 -2 3 C-2.33 3.66 -2.66 4.32 -3 5 C-3 4.34 -3 3.68 -3 3 C-3.99 3 -4.98 3 -6 3 C-6 2.34 -6 1.68 -6 1 C-6.66 0.67 -7.32 0.34 -8 0 C-5.13822943 -1.43088528 -3.06624227 -0.59991697 0 0 Z " fill="#FD312B" transform="translate(204,249)"/>
<path d="M0 0 C1.4391134 0.28359887 2.87625518 0.57721399 4.3125 0.875 C5.11300781 1.03742188 5.91351563 1.19984375 6.73828125 1.3671875 C9 2 9 2 12 4 C10.68 4.33 9.36 4.66 8 5 C8 4.34 8 3.68 8 3 C5.03 3 2.06 3 -1 3 C-0.67 2.01 -0.34 1.02 0 0 Z " fill="#E73E3D" transform="translate(196,246)"/>
<path d="M0 0 C0.66 0 1.32 0 2 0 C2 0.66 2 1.32 2 2 C2.66 2 3.32 2 4 2 C4 4.64 4 7.28 4 10 C1.16625119 6.79663178 0.4794463 4.21912747 0 0 Z " fill="#4DB5F3" transform="translate(73,241)"/>
<path d="M0 0 C0.33 0.99 0.66 1.98 1 3 C-1 5 -1 5 -3.8203125 5.1953125 C-4.91085937 5.17210937 -6.00140625 5.14890625 -7.125 5.125 C-8.22070312 5.10695312 -9.31640625 5.08890625 -10.4453125 5.0703125 C-11.28835938 5.04710937 -12.13140625 5.02390625 -13 5 C-13 4.34 -13 3.68 -13 3 C-12.39671875 3.03480469 -11.7934375 3.06960937 -11.171875 3.10546875 C-6.07474512 3.3514449 -6.07474512 3.3514449 -1.4375 1.5 C-0.963125 1.005 -0.48875 0.51 0 0 Z " fill="#E53E41" transform="translate(268,216)"/>
<path d="M0 0 C1 3 1 3 0.0625 5.1875 C-0.4634375 6.0846875 -0.4634375 6.0846875 -1 7 C-2.65 6.67 -4.3 6.34 -6 6 C-4 4 -2 2 0 0 Z " fill="#DE423F" transform="translate(169,196)"/>
<path d="M0 0 C0 0.66 0 1.32 0 2 C-1.98 2.99 -1.98 2.99 -4 4 C-3.67 5.32 -3.34 6.64 -3 8 C-5.31 7.67 -7.62 7.34 -10 7 C-3.18421053 0 -3.18421053 0 0 0 Z " fill="#E83C3A" transform="translate(171,165)"/>
<path d="M0 0 C1.32 0.66 2.64 1.32 4 2 C1.03 4.475 1.03 4.475 -2 7 C-2.33 5.35 -2.66 3.7 -3 2 C-2.01 1.34 -1.02 0.68 0 0 Z " fill="#E83A3D" transform="translate(340,349)"/>
<path d="M0 0 C0.33 0.66 0.66 1.32 1 2 C0.67 2.66 0.34 3.32 0 4 C-0.66 4 -1.32 4 -2 4 C-2.33 5.65 -2.66 7.3 -3 9 C-3.33 8.34 -3.66 7.68 -4 7 C-6.01669827 5.86649466 -6.01669827 5.86649466 -8 5 C-6.20963542 3.99088542 -4.41927083 2.98177083 -2.62890625 1.97265625 C-1.02121854 1.1027487 -1.02121854 1.1027487 0 0 Z " fill="#E93938" transform="translate(346,332)"/>
<path d="M0 0 C1.9451 2.91765 2.45276317 4.62537285 3 8 C1.35 8.33 -0.3 8.66 -2 9 C-2.33 8.01 -2.66 7.02 -3 6 C-2.34 5.67 -1.68 5.34 -1 5 C-0.34444881 2.47266765 -0.34444881 2.47266765 0 0 Z " fill="#EC3A3B" transform="translate(218,234)"/>
<path d="M0 0 C1.5625 1.8125 1.5625 1.8125 3 4 C2.67 4.99 2.34 5.98 2 7 C3.32 7.66 4.64 8.32 6 9 C4.35 9 2.7 9 1 9 C0.01 6.69 -0.98 4.38 -2 2 C-1.34 1.34 -0.68 0.68 0 0 Z " fill="#DC4546" transform="translate(218,196)"/>
<path d="M0 0 C1.64846769 0.44876616 3.29373455 0.90930488 4.9375 1.375 C5.85402344 1.63023438 6.77054687 1.88546875 7.71484375 2.1484375 C10 3 10 3 11 5 C10.2575 4.979375 9.515 4.95875 8.75 4.9375 C6.29537721 4.99328688 4.33890739 5.3069904 2 6 C2.66 4.68 3.32 3.36 4 2 C2.68 1.67 1.36 1.34 0 1 C0 0.67 0 0.34 0 0 Z " fill="#E83D3D" transform="translate(376,98)"/>
<path d="M0 0 C2.97 0.495 2.97 0.495 6 1 C6 1.99 6 2.98 6 4 C4.1875 4.625 4.1875 4.625 2 5 C1.01 4.34 0.02 3.68 -1 3 C-0.67 2.01 -0.34 1.02 0 0 Z " fill="#45B2F3" transform="translate(193,97)"/>
<path d="M0 0 C-0.66 0.66 -1.32 1.32 -2 2 C-4.125 1.625 -4.125 1.625 -6 1 C-5.67 3.31 -5.34 5.62 -5 8 C-5.99 8 -6.98 8 -8 8 C-7.67 5.36 -7.34 2.72 -7 0 C-2.25 -1.125 -2.25 -1.125 0 0 Z " fill="#E53E42" transform="translate(181,290)"/>
<path d="M0 0 C0.33 0 0.66 0 1 0 C1.12375 0.94875 1.2475 1.8975 1.375 2.875 C1.71687177 6.08667191 1.71687177 6.08667191 4 8 C3.34 8 2.68 8 2 8 C1.67 8.66 1.34 9.32 1 10 C-0.625 8.375 -0.625 8.375 -2 6 C-1.1875 2.75 -1.1875 2.75 0 0 Z " fill="#E63E41" transform="translate(236,254)"/>
<path d="M0 0 C1.65 1.32 3.3 2.64 5 4 C4.34 6.97 3.68 9.94 3 13 C2.67 13 2.34 13 2 13 C2.03480469 12.09507812 2.03480469 12.09507812 2.0703125 11.171875 C2.08835938 10.37265625 2.10640625 9.5734375 2.125 8.75 C2.14820313 7.96109375 2.17140625 7.1721875 2.1953125 6.359375 C1.9828378 3.79268059 1.28654105 2.2083933 0 0 Z " fill="#D94242" transform="translate(173,228)"/>
<path d="M0 0 C1.32 0.33 2.64 0.66 4 1 C2.5625 3.125 2.5625 3.125 0 5 C-3.12820109 4.75232831 -6.01503209 3.94396421 -9 3 C-9 2.67 -9 2.34 -9 2 C-6.03 2.33 -3.06 2.66 0 3 C0 2.01 0 1.02 0 0 Z " fill="#E14A4A" transform="translate(241,161)"/>
<path d="M0 0 C0.66 0.99 1.32 1.98 2 3 C1.34 3 0.68 3 0 3 C0.33 4.32 0.66 5.64 1 7 C-1.62187494 5.95125002 -2.79371361 5.35068687 -4.25 2.875 C-4.4975 2.25625 -4.745 1.6375 -5 1 C-2.525 1.495 -2.525 1.495 0 2 C0 1.34 0 0.68 0 0 Z " fill="#4EB0F2" transform="translate(102,287)"/>
<path d="M0 0 C1.32 0 2.64 0 4 0 C2.8141763 3.37503669 1.72426311 5.64722731 -1 8 C-1.04241723 5.66705225 -1.04092937 3.33297433 -1 1 C-0.67 0.67 -0.34 0.34 0 0 Z " fill="#E93C39" transform="translate(403,276)"/>
<path d="M0 0 C0.66 1.32 1.32 2.64 2 4 C0.1875 5.0625 0.1875 5.0625 -2 6 C-2.99 5.67 -3.98 5.34 -5 5 C-3.35 3.35 -1.7 1.7 0 0 Z " fill="#44B0EF" transform="translate(92,112)"/>
<path d="M0 0 C1.485 0.99 1.485 0.99 3 2 C3 2.66 3 3.32 3 4 C3.66 4 4.32 4 5 4 C4.67 4.99 4.34 5.98 4 7 C2.68 6.34 1.36 5.68 0 5 C0 3.33333333 0 1.66666667 0 0 Z " fill="#4AB3EF" transform="translate(164,360)"/>
<path d="M0 0 C0.66 0.33 1.32 0.66 2 1 C1.375 3.4375 1.375 3.4375 0 6 C-3.125 6.8125 -3.125 6.8125 -6 7 C-4.02 4.69 -2.04 2.38 0 0 Z " fill="#E33E3D" transform="translate(299,351)"/>
<path d="M0 0 C3 1 3 1 4.1875 3.25 C4.99938294 5.99791147 5.16260121 8.15447889 5 11 C2.03947516 7.63576723 1.07710178 4.30840713 0 0 Z " fill="#E93E41" transform="translate(308,198)"/>
<path d="M0 0 C2.475 0.99 2.475 0.99 5 2 C4.01 2.99 3.02 3.98 2 5 C2 4.34 2 3.68 2 3 C1.34 3 0.68 3 0 3 C-0.33 4.32 -0.66 5.64 -1 7 C-1.33 6.34 -1.66 5.68 -2 5 C-1.0625 2.375 -1.0625 2.375 0 0 Z " fill="#48B5F4" transform="translate(67,147)"/>
<path d="M0 0 C0.33 0 0.66 0 1 0 C1.12375 0.969375 1.2475 1.93875 1.375 2.9375 C1.684375 4.4534375 1.684375 4.4534375 2 6 C2.66 6.33 3.32 6.66 4 7 C1.525 8.485 1.525 8.485 -1 10 C-0.67 6.7 -0.34 3.4 0 0 Z " fill="#D74142" transform="translate(274,399)"/>
<path d="M0 0 C0.33 1.65 0.66 3.3 1 5 C-0.65 4.67 -2.3 4.34 -4 4 C-4 3.01 -4 2.02 -4 1 C-2 0 -2 0 0 0 Z " fill="#EA3936" transform="translate(214,263)"/>
<path d="M0 0 C1.98 0.495 1.98 0.495 4 1 C3.34 2.65 2.68 4.3 2 6 C1.01 5.34 0.02 4.68 -1 4 C-0.67 2.68 -0.34 1.36 0 0 Z " fill="#F0383A" transform="translate(248,186)"/>
<path d="M0 0 C3.08089673 2.77280706 4.68775452 5.06326356 6 9 C5.01 8.34 4.02 7.68 3 7 C3 6.34 3 5.68 3 5 C1.68 4.67 0.36 4.34 -1 4 C-0.67 2.68 -0.34 1.36 0 0 Z " fill="#E73C3E" transform="translate(419,128)"/>
<path d="M0 0 C1.65 0 3.3 0 5 0 C3.68 1.65 2.36 3.3 1 5 C-0.32 4.34 -1.64 3.68 -3 3 C-2.01 3 -1.02 3 0 3 C0 2.01 0 1.02 0 0 Z " fill="#EC3A3B" transform="translate(307,378)"/>
<path d="M0 0 C6.57142857 4 6.57142857 4 8 8 C6.0625 7.6875 6.0625 7.6875 4 7 C3.67 6.01 3.34 5.02 3 4 C2.01 3.34 1.02 2.68 0 2 C0 1.34 0 0.68 0 0 Z " fill="#DF4241" transform="translate(274,168)"/>
<path d="M0 0 C2.15377564 2.62198774 3.40072174 4.64404172 4 8 C3.01 8.33 2.02 8.66 1 9 C0.29925156 5.846632 0 3.27275026 0 0 Z " fill="#E23D3E" transform="translate(427,140)"/>
<path d="M0 0 C-1.65 1.65 -3.3 3.3 -5 5 C-5 3.68 -5 2.36 -5 1 C-5.66 0.67 -6.32 0.34 -7 0 C-4.3333581 -1.33332095 -2.83319697 -0.67102033 0 0 Z " fill="#50B4EF" transform="translate(234,130)"/>
<path d="M0 0 C2.31 1.98 4.62 3.96 7 6 C6.67 6.66 6.34 7.32 6 8 C3.5625 6.8125 3.5625 6.8125 1 5 C0.1875 2.3125 0.1875 2.3125 0 0 Z " fill="#D93F3F" transform="translate(410,118)"/>
<path d="M0 0 C2.76223278 2.76223278 2.57856291 5.20706617 3 9 C1.68 8.34 0.36 7.68 -1 7 C-0.67 4.69 -0.34 2.38 0 0 Z " fill="#48AFEE" transform="translate(169,336)"/>
<path d="M0 0 C3 2 3 2 3.6875 4.625 C3.790625 5.40875 3.89375 6.1925 4 7 C3.01 7 2.02 7 1 7 C0.34 5.02 -0.32 3.04 -1 1 C-0.67 0.67 -0.34 0.34 0 0 Z " fill="#3AC0F7" transform="translate(125,320)"/>
<path d="M0 0 C1.70884005 1.62339805 3.37446717 3.29319053 5 5 C5 5.66 5 6.32 5 7 C3.35 7 1.7 7 0 7 C0 4.69 0 2.38 0 0 Z " fill="#4FAFEB" transform="translate(138,293)"/>
<path d="M0 0 C0.99 0 1.98 0 3 0 C4.04449911 3.13349732 3.93423645 3.98968256 3 7 C1.5 5.75 1.5 5.75 0 4 C0 2.68 0 1.36 0 0 Z " fill="#E63E40" transform="translate(152,251)"/>
<path d="M0 0 C0.99 0 1.98 0 3 0 C3 0.99 3 1.98 3 3 C4.32 3 5.64 3 7 3 C7 3.66 7 4.32 7 5 C4.69 4.34 2.38 3.68 0 3 C0 2.01 0 1.02 0 0 Z " fill="#E14547" transform="translate(225,242)"/>
<path d="M0 0 C1.32 0 2.64 0 4 0 C4.33 1.65 4.66 3.3 5 5 C3 5 3 5 1.375 3.625 C0 2 0 2 0 0 Z M-1 3 C-0.01 3.495 -0.01 3.495 1 4 C0.01 4.495 0.01 4.495 -1 5 C-1 4.34 -1 3.68 -1 3 Z " fill="#EE373A" transform="translate(212,226)"/>
<path d="M0 0 C1.70884005 1.62339805 3.37446717 3.29319053 5 5 C5 5.66 5 6.32 5 7 C3.68 6.67 2.36 6.34 1 6 C0.67 4.02 0.34 2.04 0 0 Z " fill="#EC3B40" transform="translate(282,176)"/>
<path d="M0 0 C0.66 0.33 1.32 0.66 2 1 C1.67 1.99 1.34 2.98 1 4 C0.34 4 -0.32 4 -1 4 C-1 5.32 -1 6.64 -1 8 C-1.66 8 -2.32 8 -3 8 C-3.33 7.01 -3.66 6.02 -4 5 C-2.68 4.34 -1.36 3.68 0 3 C0 2.01 0 1.02 0 0 Z " fill="#44B1F8" transform="translate(237,121)"/>
</svg>
